<!-- Generator: Adobe Illustrator 18.1.1, SVG Export Plug-In  -->
<svg version="1.1"
	 xmlns="http://www.w3.org/2000/svg" xmlns:xlink="http://www.w3.org/1999/xlink" xmlns:a="http://ns.adobe.com/AdobeSVGViewerExtensions/3.0/"
	 x="0px" y="0px" width="284.8px" height="98.7px" viewBox="0 0 284.8 98.7" enable-background="new 0 0 284.8 98.7"
	 xml:space="preserve">
<defs>
</defs>
<rect fill="#2B2B2B" width="284.8" height="21.5"/>
<g>
	<path fill="#2B2B2B" d="M9.8,45.8c0,1.4-0.5,2.4-1.5,3.2c-1,0.8-2.3,1.2-4.1,1.2c-1.6,0-3-0.3-4.2-0.9v-3c1,0.5,1.9,0.8,2.6,1
		c0.7,0.2,1.3,0.3,1.9,0.3c0.7,0,1.2-0.1,1.6-0.4c0.4-0.3,0.6-0.7,0.6-1.2c0-0.3-0.1-0.6-0.2-0.8C6.2,45,6,44.8,5.7,44.6
		c-0.3-0.2-1-0.5-1.9-1c-0.9-0.4-1.6-0.8-2.1-1.2s-0.8-0.9-1.1-1.4c-0.3-0.5-0.4-1.1-0.4-1.8c0-1.3,0.4-2.4,1.3-3.1s2.1-1.1,3.7-1.1
		c0.8,0,1.5,0.1,2.2,0.3c0.7,0.2,1.4,0.4,2.2,0.8l-1,2.5c-0.8-0.3-1.5-0.6-2-0.7c-0.5-0.1-1-0.2-1.5-0.2c-0.6,0-1.1,0.1-1.4,0.4
		S3.3,38.5,3.3,39c0,0.3,0.1,0.5,0.2,0.7c0.1,0.2,0.3,0.4,0.6,0.6c0.3,0.2,1,0.5,2,1.1c1.4,0.7,2.4,1.3,2.9,2
		C9.5,44,9.8,44.9,9.8,45.8z"/>
	<path fill="#2B2B2B" d="M18.3,50h-3.2V37.7H11V35h11.3v2.6h-4.1V50z"/>
	<path fill="#2B2B2B" d="M24.7,50V35h3.2v15H24.7z"/>
	<path fill="#2B2B2B" d="M38,37.4c-1.2,0-2.1,0.4-2.8,1.3c-0.7,0.9-1,2.2-1,3.8c0,3.3,1.3,5,3.8,5c1.1,0,2.3-0.3,3.8-0.8v2.7
		c-1.2,0.5-2.6,0.8-4.1,0.8c-2.2,0-3.8-0.7-5-2c-1.2-1.3-1.7-3.2-1.7-5.7c0-1.6,0.3-2.9,0.9-4.1c0.6-1.2,1.4-2.1,2.4-2.7
		c1.1-0.6,2.3-0.9,3.7-0.9c1.5,0,2.9,0.4,4.4,1.1l-1,2.6c-0.6-0.3-1.1-0.5-1.7-0.7S38.5,37.4,38,37.4z"/>
	<path fill="#2B2B2B" d="M57.3,50h-3.2v-6.5h-5.9V50H45V35h3.2v5.9h5.9V35h3.2V50z"/>
	<path fill="#2B2B2B" d="M66.8,50h-3.2V37.7h-4.1V35h11.3v2.6h-4.1V50z"/>
	<path fill="#2B2B2B" d="M73.2,50V35h3.2v15H73.2z"/>
	<path fill="#2B2B2B" d="M93.5,50h-4l-6.5-11.3h-0.1c0.1,2,0.2,3.4,0.2,4.3V50h-2.8V35h4l6.5,11.2h0.1c-0.1-1.9-0.2-3.3-0.2-4.1V35
		h2.9V50z"/>
	<path fill="#2B2B2B" d="M102.9,41.6h5.9v7.8c-1,0.3-1.9,0.5-2.7,0.7c-0.9,0.1-1.7,0.2-2.6,0.2c-2.3,0-4-0.7-5.2-2
		c-1.2-1.3-1.8-3.2-1.8-5.7c0-2.4,0.7-4.3,2.1-5.7c1.4-1.4,3.3-2,5.8-2c1.5,0,3,0.3,4.5,0.9l-1.1,2.5c-1.1-0.5-2.2-0.8-3.4-0.8
		c-1.4,0-2.5,0.5-3.3,1.4s-1.2,2.2-1.2,3.7c0,1.6,0.3,2.9,1,3.7c0.7,0.9,1.6,1.3,2.9,1.3c0.7,0,1.3-0.1,2-0.2v-3.1h-2.8V41.6z"/>
	<path fill="#2B2B2B" d="M117.9,50V35h3.2v15H117.9z"/>
	<path fill="#2B2B2B" d="M138.2,50h-4l-6.5-11.3h-0.1c0.1,2,0.2,3.4,0.2,4.3V50h-2.8V35h4l6.5,11.2h0.1c-0.1-1.9-0.2-3.3-0.2-4.1V35
		h2.9V50z"/>
	<path fill="#2B2B2B" d="M154,50h-3.6l-3.9-6.3l-1.3,1V50h-3.2V35h3.2v6.9l1.3-1.8l4.1-5.1h3.5l-5.2,6.6L154,50z"/>
	<path fill="#2B2B2B" d="M169.5,42.5c0,2.5-0.6,4.4-1.8,5.7c-1.2,1.3-3,2-5.3,2s-4.1-0.7-5.3-2c-1.2-1.3-1.8-3.2-1.8-5.7
		c0-2.5,0.6-4.4,1.9-5.7c1.2-1.3,3-2,5.3-2s4.1,0.7,5.3,2C168.9,38.1,169.5,40,169.5,42.5z M158.5,42.5c0,1.7,0.3,2.9,1,3.8
		s1.6,1.3,2.9,1.3c2.5,0,3.8-1.7,3.8-5.1c0-3.4-1.3-5.1-3.8-5.1c-1.3,0-2.2,0.4-2.9,1.3C158.9,39.6,158.5,40.8,158.5,42.5z"/>
	<path fill="#2B2B2B" d="M186.2,42.5c0,2.5-0.6,4.4-1.8,5.7c-1.2,1.3-3,2-5.3,2s-4.1-0.7-5.3-2c-1.2-1.3-1.8-3.2-1.8-5.7
		c0-2.5,0.6-4.4,1.9-5.7c1.2-1.3,3-2,5.3-2s4.1,0.7,5.3,2C185.6,38.1,186.2,40,186.2,42.5z M175.2,42.5c0,1.7,0.3,2.9,1,3.8
		s1.6,1.3,2.9,1.3c2.5,0,3.8-1.7,3.8-5.1c0-3.4-1.3-5.1-3.8-5.1c-1.3,0-2.2,0.4-2.9,1.3C175.6,39.6,175.2,40.8,175.2,42.5z"/>
	<path fill="#2B2B2B" d="M199.7,39.7c0,1.6-0.5,2.8-1.5,3.7s-2.4,1.3-4.3,1.3h-1.4V50h-3.2V35h4.8c1.8,0,3.2,0.4,4.1,1.2
		C199.2,37,199.7,38.1,199.7,39.7z M192.5,42.1h1c1,0,1.7-0.2,2.2-0.6c0.5-0.4,0.7-0.9,0.7-1.7c0-0.7-0.2-1.3-0.6-1.7
		c-0.4-0.4-1-0.5-1.9-0.5h-1.4V42.1z"/>
	<path fill="#2B2B2B" d="M202.5,35h4.7c2.1,0,3.7,0.3,4.6,0.9c1,0.6,1.4,1.6,1.4,2.9c0,0.9-0.2,1.6-0.6,2.2c-0.4,0.6-1,0.9-1.7,1
		v0.1c1,0.2,1.6,0.6,2.1,1.2c0.4,0.6,0.6,1.4,0.6,2.3c0,1.4-0.5,2.4-1.5,3.2c-1,0.8-2.3,1.1-4,1.1h-5.6V35z M205.7,41h1.8
		c0.9,0,1.5-0.1,1.9-0.4s0.6-0.7,0.6-1.3c0-0.6-0.2-1-0.6-1.2c-0.4-0.2-1.1-0.4-2-0.4h-1.7V41z M205.7,43.5v3.9h2.1
		c0.9,0,1.5-0.2,1.9-0.5s0.6-0.8,0.6-1.5c0-1.2-0.9-1.9-2.7-1.9H205.7z"/>
	<path fill="#2B2B2B" d="M228.8,35v9.7c0,1.1-0.2,2.1-0.7,2.9c-0.5,0.8-1.2,1.5-2.1,1.9s-2,0.7-3.3,0.7c-1.9,0-3.4-0.5-4.5-1.5
		c-1.1-1-1.6-2.3-1.6-4.1V35h3.2v9.2c0,1.2,0.2,2,0.7,2.5c0.5,0.5,1.2,0.8,2.3,0.8c1,0,1.8-0.3,2.3-0.8c0.5-0.5,0.7-1.4,0.7-2.6V35
		H228.8z"/>
	<path fill="#2B2B2B" d="M235.6,44.3V50h-3.2V35h4.4c2,0,3.5,0.4,4.5,1.1c1,0.7,1.5,1.9,1.5,3.4c0,0.9-0.2,1.7-0.7,2.4
		c-0.5,0.7-1.2,1.2-2.1,1.6c2.3,3.4,3.7,5.5,4.4,6.5h-3.5l-3.6-5.8H235.6z M235.6,41.7h1c1,0,1.7-0.2,2.2-0.5s0.7-0.9,0.7-1.6
		c0-0.7-0.2-1.2-0.7-1.5c-0.5-0.3-1.2-0.5-2.3-0.5h-1V41.7z"/>
	<path fill="#2B2B2B" d="M255,50h-8.6V35h8.6v2.6h-5.5v3.3h5.1v2.6h-5.1v3.9h5.5V50z"/>
	<path fill="#2B2B2B" d="M267.3,50l-1.1-3.6h-5.5l-1.1,3.6h-3.4l5.3-15.1h3.9l5.3,15.1H267.3z M265.4,43.8c-1-3.2-1.6-5.1-1.7-5.5
		c-0.1-0.4-0.2-0.8-0.3-1c-0.2,0.9-0.9,3-1.9,6.5H265.4z"/>
	<path fill="#2B2B2B" d="M284.8,35v9.7c0,1.1-0.2,2.1-0.7,2.9c-0.5,0.8-1.2,1.5-2.1,1.9s-2,0.7-3.3,0.7c-1.9,0-3.4-0.5-4.5-1.5
		c-1.1-1-1.6-2.3-1.6-4.1V35h3.2v9.2c0,1.2,0.2,2,0.7,2.5c0.5,0.5,1.2,0.8,2.3,0.8c1,0,1.8-0.3,2.3-0.8c0.5-0.5,0.7-1.4,0.7-2.6V35
		H284.8z"/>
</g>
<g>
	<path fill="#F15A29" d="M25.8,86h-1.6l-6.3-22c-0.5-1.8-0.9-3.3-1.2-4.5c-0.2,1.1-0.5,2.4-0.9,3.9c-0.4,1.5-2.5,9-6.3,22.6H7.9
		L0,57.5h2.1l5,18.4c0.2,0.7,0.4,1.4,0.5,2.1c0.2,0.6,0.3,1.2,0.5,1.8s0.3,1.1,0.4,1.6c0.1,0.5,0.2,1,0.3,1.6c0.3-1.8,1-4.5,2-8.1
		l4.9-17.3h2.2l5.7,19.9c0.7,2.3,1.1,4.1,1.4,5.5c0.2-0.9,0.4-1.9,0.7-3c0.3-1.1,2.3-8.5,6-22.4h2L25.8,86z"/>
	<path fill="#F15A29" d="M54.4,86H38.8V57.5h15.6v1.8H40.8v10.8h12.9v1.8H40.8v12.2h13.6V86z"/>
	<path fill="#F15A29" d="M76.6,78.7c0,2.4-0.9,4.3-2.6,5.7c-1.8,1.4-4.1,2.1-7,2.1c-3.5,0-6.2-0.4-8-1.2v-2c2.1,0.9,4.7,1.3,7.9,1.3
		c2.3,0,4.2-0.5,5.6-1.6c1.4-1.1,2.1-2.5,2.1-4.2c0-1.1-0.2-2-0.7-2.7c-0.5-0.7-1.2-1.4-2.2-1.9c-1-0.6-2.5-1.2-4.5-1.9
		c-2.9-1-4.9-2.1-6-3.3s-1.7-2.7-1.7-4.7c0-2.1,0.8-3.9,2.5-5.2c1.7-1.3,3.8-2,6.5-2c2.7,0,5.2,0.5,7.6,1.5l-0.7,1.7
		c-2.4-1-4.6-1.5-6.8-1.5c-2.1,0-3.8,0.5-5,1.5s-1.9,2.3-1.9,4c0,1.1,0.2,1.9,0.6,2.6c0.4,0.7,1,1.3,1.9,1.8
		c0.9,0.5,2.4,1.2,4.5,1.9c2.2,0.8,3.9,1.5,5,2.2c1.1,0.7,1.9,1.5,2.5,2.5C76.3,76.2,76.6,77.4,76.6,78.7z"/>
	<path fill="#F15A29" d="M90.1,86h-2V59.3h-9.3v-1.9h20.6v1.9h-9.3V86z"/>
	<path fill="#F15A29" d="M101.3,76v-1.6h9.3V76H101.3z"/>
	<path fill="#F15A29" d="M116.5,57.5h7.8c3.5,0,6.1,0.6,7.8,1.8c1.7,1.2,2.5,3,2.5,5.4c0,1.7-0.5,3-1.5,4.1c-1,1.1-2.5,1.8-4.4,2.1
		v0.1c2.3,0.3,4,1.1,5,2.2s1.6,2.6,1.6,4.6c0,2.6-0.9,4.7-2.6,6.1c-1.7,1.4-4.2,2.1-7.4,2.1h-8.8V57.5z M118.5,70.2h6.3
		c2.7,0,4.6-0.4,5.8-1.3c1.2-0.9,1.8-2.3,1.8-4.2s-0.7-3.3-2.1-4.1c-1.4-0.9-3.4-1.3-6.1-1.3h-5.8V70.2z M118.5,71.9v12.3h6.7
		c5.3,0,7.9-2.1,7.9-6.4c0-3.9-2.8-5.9-8.4-5.9H118.5z"/>
	<path fill="#F15A29" d="M143.5,73.6V86h-2V57.5h6.8c3.5,0,6.2,0.7,7.9,2c1.7,1.3,2.5,3.3,2.5,5.9c0,1.9-0.5,3.5-1.5,4.8
		c-1,1.3-2.5,2.3-4.6,2.8l7.8,13H158l-7.4-12.4H143.5z M143.5,71.9h5.4c2.4,0,4.3-0.5,5.6-1.6s2-2.7,2-4.8c0-2.2-0.7-3.8-2-4.7
		c-1.3-1-3.4-1.5-6.4-1.5h-4.7V71.9z"/>
	<path fill="#F15A29" d="M179.1,75.9h-11.6l-4,10.1h-2.2l11.5-28.7h1.3L185.3,86H183L179.1,75.9z M168.2,74.1h10.2l-3.9-10.3
		c-0.3-0.8-0.7-1.9-1.2-3.4c-0.4,1.3-0.7,2.4-1.2,3.4L168.2,74.1z"/>
	<path fill="#F15A29" d="M189.3,57.5h7.8c3.5,0,6.1,0.6,7.8,1.8c1.7,1.2,2.5,3,2.5,5.4c0,1.7-0.5,3-1.5,4.1c-1,1.1-2.5,1.8-4.4,2.1
		v0.1c2.3,0.3,4,1.1,5,2.2s1.6,2.6,1.6,4.6c0,2.6-0.9,4.7-2.6,6.1c-1.7,1.4-4.2,2.1-7.4,2.1h-8.8V57.5z M191.3,70.2h6.3
		c2.7,0,4.6-0.4,5.8-1.3c1.2-0.9,1.8-2.3,1.8-4.2s-0.7-3.3-2.1-4.1c-1.4-0.9-3.4-1.3-6.1-1.3h-5.8V70.2z M191.3,71.9v12.3h6.7
		c5.3,0,7.9-2.1,7.9-6.4c0-3.9-2.8-5.9-8.4-5.9H191.3z"/>
	<path fill="#F15A29" d="M228.1,75.9h-11.6l-4,10.1h-2.2l11.5-28.7h1.3L234.3,86h-2.2L228.1,75.9z M217.3,74.1h10.2l-3.9-10.3
		c-0.3-0.8-0.7-1.9-1.2-3.4c-0.4,1.3-0.7,2.4-1.2,3.4L217.3,74.1z"/>
	<path fill="#F15A29" d="M259.2,86h-2l-16.9-25.4h-0.2c0.2,3,0.2,5.3,0.2,6.8V86h-1.9V57.5h2l16.9,25.3h0.1
		c-0.1-2.3-0.2-4.6-0.2-6.7V57.5h1.9V86z"/>
	<path fill="#F15A29" d="M274.7,86h-2V59.3h-9.3v-1.9H284v1.9h-9.3V86z"/>
</g>
<g>
	<path fill="#9B9595" d="M115.4,11.8h-2.9l-1,2.5H111l2.9-7.2h0.3l2.8,7.2h-0.6L115.4,11.8z M112.7,11.4h2.6l-1-2.6
		c-0.1-0.2-0.2-0.5-0.3-0.8c-0.1,0.3-0.2,0.6-0.3,0.8L112.7,11.4z"/>
	<path fill="#9B9595" d="M123.4,10.7c0,1.2-0.3,2.1-0.9,2.7c-0.6,0.6-1.6,0.9-2.8,0.9H118V7.2h1.9c1.1,0,2,0.3,2.6,0.9
		S123.4,9.6,123.4,10.7z M122.9,10.7c0-1-0.3-1.8-0.8-2.3c-0.5-0.5-1.3-0.8-2.3-0.8h-1.3v6.3h1.2C121.8,13.9,122.9,12.8,122.9,10.7z
		"/>
	<path fill="#9B9595" d="M128.2,14.3l-2.7-6.6h0c0,0.4,0,0.8,0,1.2v5.4H125V7.2h0.8l2.5,6.3h0l2.5-6.3h0.8v7.1h-0.5V8.9
		c0-0.4,0-0.8,0.1-1.2h0l-2.7,6.6H128.2z"/>
	<path fill="#9B9595" d="M133.7,14.3V7.2h0.5v7.1H133.7z"/>
	<path fill="#9B9595" d="M141.4,14.3h-0.5L136.6,8h0c0,0.8,0.1,1.3,0.1,1.7v4.6h-0.5V7.2h0.5l4.2,6.3h0c0-0.6,0-1.1,0-1.7V7.2h0.5
		V14.3z"/>
	<path fill="#9B9595" d="M147.7,9.2c0,0.7-0.2,1.2-0.7,1.6s-1.1,0.6-2,0.6h-1.1v2.9h-0.5V7.2h1.7C146.8,7.2,147.7,7.9,147.7,9.2z
		 M143.9,11h1c0.8,0,1.4-0.1,1.7-0.4c0.4-0.3,0.5-0.7,0.5-1.3c0-0.5-0.2-1-0.5-1.2c-0.3-0.3-0.9-0.4-1.6-0.4h-1.2V11z"/>
	<path fill="#9B9595" d="M152.7,11.8h-2.9l-1,2.5h-0.6l2.9-7.2h0.3l2.8,7.2h-0.6L152.7,11.8z M150,11.4h2.6l-1-2.6
		c-0.1-0.2-0.2-0.5-0.3-0.8c-0.1,0.3-0.2,0.6-0.3,0.8L150,11.4z"/>
	<path fill="#9B9595" d="M160.4,14.3h-0.5L155.7,8h0c0,0.8,0.1,1.3,0.1,1.7v4.6h-0.5V7.2h0.5l4.2,6.3h0c0-0.6,0-1.1,0-1.7V7.2h0.5
		V14.3z"/>
	<path fill="#9B9595" d="M166.4,14.3h-3.9V7.2h3.9v0.5H163v2.7h3.2v0.5H163v3.1h3.4V14.3z"/>
	<path fill="#9B9595" d="M168,14.3V7.2h0.5v6.7h3.4v0.5H168z"/>
</g>
<line fill="none" stroke="#2B2B2B" stroke-miterlimit="10" x1="0" y1="98.2" x2="284" y2="98.2"/>
</svg>