<!-- Generator: Adobe Illustrator 18.1.1, SVG Export Plug-In  -->
<svg version="1.1"
	 xmlns="http://www.w3.org/2000/svg" xmlns:xlink="http://www.w3.org/1999/xlink" xmlns:a="http://ns.adobe.com/AdobeSVGViewerExtensions/3.0/"
	 x="0px" y="0px" width="284.8px" height="52.6px" viewBox="0 0 284.8 52.6" enable-background="new 0 0 284.8 52.6"
	 xml:space="preserve">
<defs>
</defs>
<g>
	<path fill="#2B2B2B" d="M9.8,11.1c0,1.4-0.5,2.4-1.5,3.2c-1,0.8-2.3,1.2-4.1,1.2c-1.6,0-3-0.3-4.2-0.9v-3c1,0.5,1.9,0.8,2.6,1
		c0.7,0.2,1.3,0.3,1.9,0.3c0.7,0,1.2-0.1,1.6-0.4c0.4-0.3,0.6-0.7,0.6-1.2c0-0.3-0.1-0.6-0.2-0.8C6.2,10.2,6,10,5.7,9.8
		c-0.3-0.2-1-0.5-1.9-1C2.8,8.3,2.1,7.9,1.7,7.5S0.9,6.7,0.6,6.1C0.3,5.6,0.2,5,0.2,4.3c0-1.3,0.4-2.4,1.3-3.1S3.7,0,5.3,0
		C6,0,6.8,0.1,7.5,0.3c0.7,0.2,1.4,0.4,2.2,0.8l-1,2.5C7.9,3.2,7.2,3,6.7,2.9c-0.5-0.1-1-0.2-1.5-0.2c-0.6,0-1.1,0.1-1.4,0.4
		S3.3,3.7,3.3,4.2c0,0.3,0.1,0.5,0.2,0.7c0.1,0.2,0.3,0.4,0.6,0.6c0.3,0.2,1,0.5,2,1.1c1.4,0.7,2.4,1.3,2.9,2
		C9.5,9.3,9.8,10.1,9.8,11.1z"/>
	<path fill="#2B2B2B" d="M18.3,15.2h-3.2V2.9H11V0.2h11.3v2.6h-4.1V15.2z"/>
	<path fill="#2B2B2B" d="M24.7,15.2v-15h3.2v15H24.7z"/>
	<path fill="#2B2B2B" d="M38,2.7c-1.2,0-2.1,0.4-2.8,1.3c-0.7,0.9-1,2.2-1,3.8c0,3.3,1.3,5,3.8,5c1.1,0,2.3-0.3,3.8-0.8v2.7
		c-1.2,0.5-2.6,0.8-4.1,0.8c-2.2,0-3.8-0.7-5-2c-1.2-1.3-1.7-3.2-1.7-5.7c0-1.6,0.3-2.9,0.9-4.1c0.6-1.2,1.4-2.1,2.4-2.7
		C35.3,0.3,36.5,0,38,0c1.5,0,2.9,0.4,4.4,1.1l-1,2.6c-0.6-0.3-1.1-0.5-1.7-0.7S38.5,2.7,38,2.7z"/>
	<path fill="#2B2B2B" d="M57.3,15.2h-3.2V8.8h-5.9v6.5H45v-15h3.2v5.9h5.9V0.2h3.2V15.2z"/>
	<path fill="#2B2B2B" d="M66.8,15.2h-3.2V2.9h-4.1V0.2h11.3v2.6h-4.1V15.2z"/>
	<path fill="#2B2B2B" d="M73.2,15.2v-15h3.2v15H73.2z"/>
	<path fill="#2B2B2B" d="M93.5,15.2h-4L82.9,3.9h-0.1c0.1,2,0.2,3.4,0.2,4.3v7.1h-2.8v-15h4l6.5,11.2h0.1c-0.1-1.9-0.2-3.3-0.2-4.1
		V0.2h2.9V15.2z"/>
	<path fill="#2B2B2B" d="M102.9,6.8h5.9v7.8c-1,0.3-1.9,0.5-2.7,0.7c-0.9,0.1-1.7,0.2-2.6,0.2c-2.3,0-4-0.7-5.2-2
		c-1.2-1.3-1.8-3.2-1.8-5.7c0-2.4,0.7-4.3,2.1-5.7c1.4-1.4,3.3-2,5.8-2c1.5,0,3,0.3,4.5,0.9l-1.1,2.5c-1.1-0.5-2.2-0.8-3.4-0.8
		c-1.4,0-2.5,0.5-3.3,1.4s-1.2,2.2-1.2,3.7c0,1.6,0.3,2.9,1,3.7c0.7,0.9,1.6,1.3,2.9,1.3c0.7,0,1.3-0.1,2-0.2V9.5h-2.8V6.8z"/>
	<path fill="#2B2B2B" d="M117.9,15.2v-15h3.2v15H117.9z"/>
	<path fill="#2B2B2B" d="M138.2,15.2h-4l-6.5-11.3h-0.1c0.1,2,0.2,3.4,0.2,4.3v7.1h-2.8v-15h4l6.5,11.2h0.1
		c-0.1-1.9-0.2-3.3-0.2-4.1V0.2h2.9V15.2z"/>
	<path fill="#2B2B2B" d="M154,15.2h-3.6l-3.9-6.3l-1.3,1v5.4h-3.2v-15h3.2v6.9l1.3-1.8l4.1-5.1h3.5l-5.2,6.6L154,15.2z"/>
	<path fill="#2B2B2B" d="M169.5,7.7c0,2.5-0.6,4.4-1.8,5.7c-1.2,1.3-3,2-5.3,2s-4.1-0.7-5.3-2c-1.2-1.3-1.8-3.2-1.8-5.7
		c0-2.5,0.6-4.4,1.9-5.7c1.2-1.3,3-2,5.3-2s4.1,0.7,5.3,2C168.9,3.3,169.5,5.2,169.5,7.7z M158.5,7.7c0,1.7,0.3,2.9,1,3.8
		s1.6,1.3,2.9,1.3c2.5,0,3.8-1.7,3.8-5.1c0-3.4-1.3-5.1-3.8-5.1c-1.3,0-2.2,0.4-2.9,1.3C158.9,4.8,158.5,6,158.5,7.7z"/>
	<path fill="#2B2B2B" d="M186.2,7.7c0,2.5-0.6,4.4-1.8,5.7c-1.2,1.3-3,2-5.3,2s-4.1-0.7-5.3-2c-1.2-1.3-1.8-3.2-1.8-5.7
		c0-2.5,0.6-4.4,1.9-5.7c1.2-1.3,3-2,5.3-2s4.1,0.7,5.3,2C185.6,3.3,186.2,5.2,186.2,7.7z M175.2,7.7c0,1.7,0.3,2.9,1,3.8
		s1.6,1.3,2.9,1.3c2.5,0,3.8-1.7,3.8-5.1c0-3.4-1.3-5.1-3.8-5.1c-1.3,0-2.2,0.4-2.9,1.3C175.6,4.8,175.2,6,175.2,7.7z"/>
	<path fill="#2B2B2B" d="M199.7,4.9c0,1.6-0.5,2.8-1.5,3.7s-2.4,1.3-4.3,1.3h-1.4v5.3h-3.2v-15h4.8c1.8,0,3.2,0.4,4.1,1.2
		C199.2,2.2,199.7,3.4,199.7,4.9z M192.5,7.3h1c1,0,1.7-0.2,2.2-0.6c0.5-0.4,0.7-0.9,0.7-1.7c0-0.7-0.2-1.3-0.6-1.7
		c-0.4-0.4-1-0.5-1.9-0.5h-1.4V7.3z"/>
	<path fill="#2B2B2B" d="M202.5,0.2h4.7c2.1,0,3.7,0.3,4.6,0.9c1,0.6,1.4,1.6,1.4,2.9c0,0.9-0.2,1.6-0.6,2.2c-0.4,0.6-1,0.9-1.7,1
		v0.1c1,0.2,1.6,0.6,2.1,1.2c0.4,0.6,0.6,1.4,0.6,2.3c0,1.4-0.5,2.4-1.5,3.2c-1,0.8-2.3,1.1-4,1.1h-5.6V0.2z M205.7,6.2h1.8
		c0.9,0,1.5-0.1,1.9-0.4s0.6-0.7,0.6-1.3c0-0.6-0.2-1-0.6-1.2c-0.4-0.2-1.1-0.4-2-0.4h-1.7V6.2z M205.7,8.7v3.9h2.1
		c0.9,0,1.5-0.2,1.9-0.5s0.6-0.8,0.6-1.5c0-1.2-0.9-1.9-2.7-1.9H205.7z"/>
	<path fill="#2B2B2B" d="M228.8,0.2v9.7c0,1.1-0.2,2.1-0.7,2.9c-0.5,0.8-1.2,1.5-2.1,1.9s-2,0.7-3.3,0.7c-1.9,0-3.4-0.5-4.5-1.5
		c-1.1-1-1.6-2.3-1.6-4.1V0.2h3.2v9.2c0,1.2,0.2,2,0.7,2.5c0.5,0.5,1.2,0.8,2.3,0.8c1,0,1.8-0.3,2.3-0.8c0.5-0.5,0.7-1.4,0.7-2.6
		V0.2H228.8z"/>
	<path fill="#2B2B2B" d="M235.6,9.5v5.8h-3.2v-15h4.4c2,0,3.5,0.4,4.5,1.1c1,0.7,1.5,1.9,1.5,3.4c0,0.9-0.2,1.7-0.7,2.4
		c-0.5,0.7-1.2,1.2-2.1,1.6c2.3,3.4,3.7,5.5,4.4,6.5h-3.5l-3.6-5.8H235.6z M235.6,6.9h1c1,0,1.7-0.2,2.2-0.5s0.7-0.9,0.7-1.6
		c0-0.7-0.2-1.2-0.7-1.5c-0.5-0.3-1.2-0.5-2.3-0.5h-1V6.9z"/>
	<path fill="#2B2B2B" d="M255,15.2h-8.6v-15h8.6v2.6h-5.5v3.3h5.1v2.6h-5.1v3.9h5.5V15.2z"/>
	<path fill="#2B2B2B" d="M267.3,15.2l-1.1-3.6h-5.5l-1.1,3.6h-3.4l5.3-15.1h3.9l5.3,15.1H267.3z M265.4,9c-1-3.2-1.6-5.1-1.7-5.5
		c-0.1-0.4-0.2-0.8-0.3-1c-0.2,0.9-0.9,3-1.9,6.5H265.4z"/>
	<path fill="#2B2B2B" d="M284.8,0.2v9.7c0,1.1-0.2,2.1-0.7,2.9c-0.5,0.8-1.2,1.5-2.1,1.9s-2,0.7-3.3,0.7c-1.9,0-3.4-0.5-4.5-1.5
		c-1.1-1-1.6-2.3-1.6-4.1V0.2h3.2v9.2c0,1.2,0.2,2,0.7,2.5c0.5,0.5,1.2,0.8,2.3,0.8c1,0,1.8-0.3,2.3-0.8c0.5-0.5,0.7-1.4,0.7-2.6
		V0.2H284.8z"/>
</g>
<g>
	<path fill="#F15A29" d="M25.8,52.2h-1.6l-6.3-22c-0.5-1.8-0.9-3.3-1.2-4.5c-0.2,1.1-0.5,2.4-0.9,3.9c-0.4,1.5-2.5,9-6.3,22.6H7.9
		L0,23.7h2.1l5,18.4c0.2,0.7,0.4,1.4,0.5,2.1c0.2,0.6,0.3,1.2,0.5,1.8s0.3,1.1,0.4,1.6c0.1,0.5,0.2,1,0.3,1.6c0.3-1.8,1-4.5,2-8.1
		l4.9-17.3h2.2l5.7,19.9c0.7,2.3,1.1,4.1,1.4,5.5c0.2-0.9,0.4-1.9,0.7-3c0.3-1.1,2.3-8.5,6-22.4h2L25.8,52.2z"/>
	<path fill="#F15A29" d="M54.4,52.2H38.8V23.7h15.6v1.8H40.8v10.8h12.9v1.8H40.8v12.2h13.6V52.2z"/>
	<path fill="#F15A29" d="M76.6,44.9c0,2.4-0.9,4.3-2.6,5.7c-1.8,1.4-4.1,2.1-7,2.1c-3.5,0-6.2-0.4-8-1.2v-2c2.1,0.9,4.7,1.3,7.9,1.3
		c2.3,0,4.2-0.5,5.6-1.6c1.4-1.1,2.1-2.5,2.1-4.2c0-1.1-0.2-2-0.7-2.7c-0.5-0.7-1.2-1.4-2.2-1.9c-1-0.6-2.5-1.2-4.5-1.9
		c-2.9-1-4.9-2.1-6-3.3s-1.7-2.7-1.7-4.7c0-2.1,0.8-3.9,2.5-5.2c1.7-1.3,3.8-2,6.5-2c2.7,0,5.2,0.5,7.6,1.5l-0.7,1.7
		c-2.4-1-4.6-1.5-6.8-1.5c-2.1,0-3.8,0.5-5,1.5s-1.9,2.3-1.9,4c0,1.1,0.2,1.9,0.6,2.6c0.4,0.7,1,1.3,1.9,1.8
		c0.9,0.5,2.4,1.2,4.5,1.9c2.2,0.8,3.9,1.5,5,2.2c1.1,0.7,1.9,1.5,2.5,2.5C76.3,42.5,76.6,43.6,76.6,44.9z"/>
	<path fill="#F15A29" d="M90.1,52.2h-2V25.6h-9.3v-1.9h20.6v1.9h-9.3V52.2z"/>
	<path fill="#F15A29" d="M101.3,42.2v-1.6h9.3v1.6H101.3z"/>
	<path fill="#F15A29" d="M116.5,23.7h7.8c3.5,0,6.1,0.6,7.8,1.8c1.7,1.2,2.5,3,2.5,5.4c0,1.7-0.5,3-1.5,4.1c-1,1.1-2.5,1.8-4.4,2.1
		v0.1c2.3,0.3,4,1.1,5,2.2s1.6,2.6,1.6,4.6c0,2.6-0.9,4.7-2.6,6.1c-1.7,1.4-4.2,2.1-7.4,2.1h-8.8V23.7z M118.5,36.4h6.3
		c2.7,0,4.6-0.4,5.8-1.3c1.2-0.9,1.8-2.3,1.8-4.2s-0.7-3.3-2.1-4.1c-1.4-0.9-3.4-1.3-6.1-1.3h-5.8V36.4z M118.5,38.2v12.3h6.7
		c5.3,0,7.9-2.1,7.9-6.4c0-3.9-2.8-5.9-8.4-5.9H118.5z"/>
	<path fill="#F15A29" d="M143.5,39.8v12.4h-2V23.7h6.8c3.5,0,6.2,0.7,7.9,2c1.7,1.3,2.5,3.3,2.5,5.9c0,1.9-0.5,3.5-1.5,4.8
		c-1,1.3-2.5,2.3-4.6,2.8l7.8,13H158l-7.4-12.4H143.5z M143.5,38.1h5.4c2.4,0,4.3-0.5,5.6-1.6s2-2.7,2-4.8c0-2.2-0.7-3.8-2-4.7
		c-1.3-1-3.4-1.5-6.4-1.5h-4.7V38.1z"/>
	<path fill="#F15A29" d="M179.1,42.2h-11.6l-4,10.1h-2.2l11.5-28.7h1.3l11.3,28.7H183L179.1,42.2z M168.2,40.4h10.2l-3.9-10.3
		c-0.3-0.8-0.7-1.9-1.2-3.4c-0.4,1.3-0.7,2.4-1.2,3.4L168.2,40.4z"/>
	<path fill="#F15A29" d="M189.3,23.7h7.8c3.5,0,6.1,0.6,7.8,1.8c1.7,1.2,2.5,3,2.5,5.4c0,1.7-0.5,3-1.5,4.1c-1,1.1-2.5,1.8-4.4,2.1
		v0.1c2.3,0.3,4,1.1,5,2.2s1.6,2.6,1.6,4.6c0,2.6-0.9,4.7-2.6,6.1c-1.7,1.4-4.2,2.1-7.4,2.1h-8.8V23.7z M191.3,36.4h6.3
		c2.7,0,4.6-0.4,5.8-1.3c1.2-0.9,1.8-2.3,1.8-4.2s-0.7-3.3-2.1-4.1c-1.4-0.9-3.4-1.3-6.1-1.3h-5.8V36.4z M191.3,38.2v12.3h6.7
		c5.3,0,7.9-2.1,7.9-6.4c0-3.9-2.8-5.9-8.4-5.9H191.3z"/>
	<path fill="#F15A29" d="M228.1,42.2h-11.6l-4,10.1h-2.2l11.5-28.7h1.3l11.3,28.7h-2.2L228.1,42.2z M217.3,40.4h10.2l-3.9-10.3
		c-0.3-0.8-0.7-1.9-1.2-3.4c-0.4,1.3-0.7,2.4-1.2,3.4L217.3,40.4z"/>
	<path fill="#F15A29" d="M259.2,52.2h-2l-16.9-25.4h-0.2c0.2,3,0.2,5.3,0.2,6.8v18.5h-1.9V23.7h2L257.3,49h0.1
		c-0.1-2.3-0.2-4.6-0.2-6.7V23.7h1.9V52.2z"/>
	<path fill="#F15A29" d="M274.7,52.2h-2V25.6h-9.3v-1.9H284v1.9h-9.3V52.2z"/>
</g>
</svg>