<!-- Generator: Adobe Illustrator 18.1.1, SVG Export Plug-In  -->
<svg version="1.1"
	 xmlns="http://www.w3.org/2000/svg" xmlns:xlink="http://www.w3.org/1999/xlink" xmlns:a="http://ns.adobe.com/AdobeSVGViewerExtensions/3.0/"
	 x="0px" y="0px" width="202.9px" height="250px" viewBox="0 0 202.9 250" enable-background="new 0 0 202.9 250"
	 xml:space="preserve">
<defs>
</defs>
<g>
	<path fill="#005C89" d="M75.9,70.4l22.9,25.5c1.3,1.5,3.6,1.5,4.9,0l22.9-25.5c0.8-0.9,1.1-2.2,0.7-3.3l-15.5-43.8l-2.1-5.9
		l-5.4-15.2c-1-2.9-5.2-2.9-6.2,0l-5.4,15.2l-2.1,5.9L75.3,67.1C74.9,68.2,75.1,69.5,75.9,70.4z M81.1,66l15.2-43.2l2-5.7l0.7-2.1
		c0.4-1.2,2.2-0.9,2.2,0.4V17v5.6V88c0,1-1.3,1.5-2,0.8L81.7,69.3C80.9,68.4,80.7,67.1,81.1,66z"/>
	<path fill="#005C89" d="M126.6,132.4l-22.9-25.5c-1.3-1.5-3.6-1.5-4.9,0l-22.9,25.5c-0.8,0.9-1.1,2.2-0.7,3.3l15.4,43.8l2.1,5.9
		l5.4,15.3c1,2.9,5.2,2.9,6.2,0l5.4-15.3l2.1-5.9l15.4-43.8C127.6,134.6,127.4,133.3,126.6,132.4z M121.4,136.9L106.2,180l-2,5.7
		l-0.8,2.1c-0.4,1.2-2.2,0.9-2.2-0.4v-1.7v-5.6v-65.4c0-1,1.3-1.5,2-0.8l17.6,19.5C121.6,134.5,121.8,135.7,121.4,136.9z"/>
	<path fill="#005C89" d="M9.2,115.8c-0.2-1.2-1-2.2-2.2-2.6l0,0c-2.3-0.8-4.7,1.1-4.4,3.6c2.4,15.7,8.5,30.2,17.4,42.6
		c1.4,2,4.6,1.7,5.6-0.5c0.5-1.1,0.4-2.4-0.3-3.3C17.1,143.9,11.4,130.4,9.2,115.8z"/>
	<path fill="#005C89" d="M89.4,195.6c-0.4-1.2-1.4-2-2.6-2.2c-14.1-2.2-27.2-7.6-38.5-15.4c-1-0.7-2.2-0.8-3.3-0.3l0,0
		c-2.3,1.1-2.5,4.3-0.4,5.7c12.1,8.4,26.2,14.2,41.3,16.5C88.3,200.4,90.3,198,89.4,195.6L89.4,195.6z"/>
	<path fill="#005C89" d="M157.5,177.8L157.5,177.8c-1.1-0.5-2.3-0.4-3.3,0.3c-11.3,7.8-24.4,13.2-38.5,15.4c-1.2,0.2-2.2,1-2.6,2.2
		l0,0c-0.8,2.3,1.1,4.7,3.6,4.4c15.2-2.4,29.2-8.1,41.3-16.5C160.1,182,159.8,178.9,157.5,177.8z"/>
	<path fill="#005C89" d="M7,89.7L7,89.7c1.2-0.4,2-1.4,2.2-2.6c2.3-14.5,7.9-27.9,16-39.4c0.7-1,0.8-2.3,0.3-3.3l0,0
		c-1.1-2.2-4.2-2.6-5.6-0.5C11.1,56.1,5.1,70.5,2.6,86.1C2.3,88.5,4.7,90.5,7,89.7z"/>
	<path fill="#005C89" d="M193.3,86.9c0.2,1.2,1,2.2,2.2,2.6l0,0c2.3,0.8,4.7-1.1,4.4-3.6c-2.4-15.6-8.5-29.9-17.3-42.3
		c-1.4-2-4.6-1.7-5.6,0.5l0,0c-0.5,1.1-0.4,2.4,0.3,3.3C185.4,59,191,72.4,193.3,86.9z"/>
	<path fill="#005C89" d="M195.5,113.3L195.5,113.3c-1.2,0.4-2,1.4-2.2,2.6c-2.3,14.5-7.9,28-16.1,39.5c-0.7,1-0.8,2.3-0.3,3.3v0
		c1.1,2.2,4.2,2.6,5.6,0.5c8.8-12.3,14.9-26.8,17.4-42.4C200.2,114.4,197.8,112.5,195.5,113.3z"/>
	<path fill="#005C89" d="M113.1,7.1c0.4,1.2,1.4,2,2.6,2.2C130,11.5,143.2,17,154.6,25c1,0.7,2.2,0.8,3.3,0.3l0,0
		c2.3-1.1,2.6-4.2,0.5-5.6C146.2,11.1,132,5.2,116.6,2.8C114.2,2.4,112.2,4.8,113.1,7.1L113.1,7.1z"/>
	<path fill="#005C89" d="M44.6,25.3L44.6,25.3c1.1,0.5,2.4,0.4,3.3-0.3c11.4-8,24.6-13.5,38.9-15.7c1.2-0.2,2.2-1,2.6-2.2l0,0
		c0.8-2.3-1.1-4.7-3.6-4.4c-15.4,2.4-29.6,8.3-41.8,16.9C42,21.1,42.3,24.2,44.6,25.3z"/>
	<path fill="#005C89" d="M95.9,98.9L70.4,76.1c-0.9-0.8-2.2-1.1-3.3-0.7l-44,15.5L17.3,93L2.2,98.3c-2.9,1-2.9,5.2,0,6.2l15.1,5.3
		l5.9,2.1l44,15.5c1.1,0.4,2.4,0.1,3.3-0.7l25.5-22.9C97.4,102.5,97.4,100.2,95.9,98.9z M69.3,120.9c-0.9,0.8-2.2,1.1-3.3,0.7
		l-43.4-15.3l-5.7-2l-2-0.7c-1.2-0.4-0.9-2.2,0.4-2.2h1.5h5.6H88c1,0,1.5,1.3,0.8,2L69.3,120.9z"/>
	<path fill="#005C89" d="M200.7,98.3l-15.5-5.5l-5.9-2.1l-43.6-15.4c-1.1-0.4-2.4-0.1-3.3,0.7L107,98.9c-1.5,1.3-1.5,3.6,0,4.9
		l25.5,22.9c0.9,0.8,2.2,1.1,3.3,0.7l43.6-15.4l5.9-2.1l15.5-5.5C203.6,103.5,203.6,99.3,200.7,98.3z M187.6,101.4h-1.9h-5.6h-65.2
		c-1,0-1.5-1.3-0.8-2l19.5-17.6c0.9-0.8,2.2-1.1,3.3-0.7l43,15.1l5.7,2l2.4,0.8C189.2,99.6,188.9,101.4,187.6,101.4z"/>
	<path fill="#005C89" d="M35.2,48.9l2.7,5.6L46.7,73c0.7,1.5,2.5,2.3,4.1,1.7l16.1-5.9c0.9-0.3,1.6-1.1,2-2l5.9-16.2
		c0.6-1.6-0.1-3.4-1.7-4.1l-18.3-8.7L49.2,35l-18.3-8.8c-2.8-1.3-5.7,1.6-4.4,4.4L35.2,48.9z"/>
	<path fill="#005C89" d="M147.7,37.7l-18.3,8.8c-1.5,0.7-2.3,2.5-1.7,4.1l5.9,16.2c0.3,0.9,1.1,1.6,2,2l16.1,5.9
		c1.6,0.6,3.4-0.1,4.1-1.7l8.8-18.5l2.7-5.6l8.7-18.2c1.3-2.8-1.6-5.7-4.4-4.4L153.3,35L147.7,37.7z"/>
	<path fill="#005C89" d="M55.1,165.3l18-8.6c1.5-0.7,2.3-2.5,1.7-4.1l-5.9-16.2c-0.3-0.9-1.1-1.6-2-2l-16.1-5.9
		c-1.6-0.6-3.4,0.1-4.1,1.7L38,148.4l-2.7,5.6l-8.8,18.5c-1.3,2.8,1.6,5.7,4.4,4.4l18.6-8.9L55.1,165.3z"/>
	<path fill="#005C89" d="M167.2,154l-2.7-5.6l-8.7-18.2c-0.7-1.5-2.5-2.3-4.1-1.7l-16.1,5.9c-0.9,0.3-1.6,1.1-2,2l-5.9,16.2
		c-0.6,1.6,0.1,3.4,1.7,4.1l18,8.6l5.7,2.7l18.6,8.9c2.8,1.3,5.7-1.6,4.4-4.4L167.2,154z"/>
</g>
<path fill="#2B2B2B" d="M3.6,248.9v-26.2c0-0.4,0.3-0.7,0.7-0.7h4.4c0.4,0,0.7,0.3,0.7,0.7v21.4c0,0.4,0.3,0.7,0.7,0.7H20
	c0.4,0,0.7,0.3,0.7,0.7v3.4c0,0.4-0.3,0.7-0.7,0.7H4.3C3.9,249.6,3.6,249.3,3.6,248.9z"/>
<path fill="#2B2B2B" d="M50.1,235.8c0,4.6-1.1,8.1-3.4,10.6c-2.3,2.5-5.5,3.7-9.8,3.7c-4.2,0-7.5-1.2-9.8-3.7
	c-2.3-2.5-3.4-6-3.4-10.6c0-4.6,1.1-8.1,3.4-10.5c2.3-2.4,5.5-3.6,9.8-3.6c4.2,0,7.5,1.2,9.7,3.7C48.9,227.7,50.1,231.2,50.1,235.8z
	 M29.9,235.8c0,3.1,0.6,5.4,1.8,7c1.2,1.6,2.9,2.3,5.3,2.3c4.7,0,7-3.1,7-9.3c0-6.2-2.3-9.3-7-9.3c-2.3,0-4.1,0.8-5.3,2.4
	C30.5,230.3,29.9,232.7,29.9,235.8z"/>
<path fill="#2B2B2B" d="M77.7,235.5c0,4.6-1.3,8-3.9,10.5c-2.6,2.4-6.3,3.6-11.2,3.6h-7.1c-0.4,0-0.7-0.3-0.7-0.7v-26.2
	c0-0.4,0.3-0.7,0.7-0.7h8c4.5,0,8,1.2,10.5,3.6C76.5,227.9,77.7,231.3,77.7,235.5z M71.6,235.7c0-5.9-2.6-8.9-7.9-8.9h-2.4
	c-0.4,0-0.7,0.3-0.7,0.7v16.6c0,0.4,0.3,0.7,0.7,0.7h1.8C68.8,244.8,71.6,241.7,71.6,235.7z"/>
<path fill="#2B2B2B" d="M97.7,249.6H83.2c-0.4,0-0.7-0.3-0.7-0.7v-26.2c0-0.4,0.3-0.7,0.7-0.7h14.5c0.4,0,0.7,0.3,0.7,0.7v3.4
	c0,0.4-0.3,0.7-0.7,0.7H89c-0.4,0-0.7,0.3-0.7,0.7v4.7c0,0.4,0.3,0.7,0.7,0.7H97c0.4,0,0.7,0.3,0.7,0.7v3.4c0,0.4-0.3,0.7-0.7,0.7
	H89c-0.4,0-0.7,0.3-0.7,0.7v5.7c0,0.4,0.3,0.7,0.7,0.7h8.6c0.4,0,0.7,0.3,0.7,0.7v3.4C98.4,249.3,98.1,249.6,97.7,249.6z"/>
<path fill="#2B2B2B" d="M136.6,249.6h-4.4c-0.4,0-0.7-0.3-0.7-0.7v-21.4c0-0.4-0.3-0.7-0.7-0.7h-6.1c-0.4,0-0.7-0.3-0.7-0.7v-3.5
	c0-0.4,0.3-0.7,0.7-0.7h19.5c0.4,0,0.7,0.3,0.7,0.7v3.5c0,0.4-0.3,0.7-0.7,0.7h-6.1c-0.4,0-0.7,0.3-0.7,0.7v21.4
	C137.3,249.3,137,249.6,136.6,249.6z"/>
<path fill="#2B2B2B" d="M181,239.7v9.2c0,0.4-0.3,0.7-0.7,0.7h-4.4c-0.4,0-0.7-0.3-0.7-0.7v-26.2c0-0.4,0.3-0.7,0.7-0.7h7.4
	c3.8,0,6.5,0.7,8.3,2.1c1.8,1.4,2.7,3.4,2.7,6.2c0,1.6-0.4,3.1-1.3,4.3c-0.8,1.1-1.8,1.9-3.1,2.6c-0.4,0.2-0.5,0.7-0.3,1
	c3.2,4.8,5.5,8.2,6.9,10.3c0.3,0.5,0,1.1-0.6,1.1h-4.8c-0.2,0-0.5-0.1-0.6-0.3l-6.2-9.9c-0.1-0.2-0.4-0.3-0.6-0.3h-2
	C181.4,239,181,239.3,181,239.7z M181,233.5c0,0.4,0.3,0.7,0.7,0.7h1.2c1.9,0,3.2-0.3,4.1-0.9c0.9-0.6,1.3-1.6,1.3-2.9
	c0-1.3-0.5-2.2-1.4-2.8c-0.9-0.6-2.3-0.8-4.2-0.8h-1.1c-0.4,0-0.7,0.3-0.7,0.7V233.5z"/>
<path fill="#2B2B2B" d="M117.1,222.1c-1.3-0.3-2.7-0.5-4.1-0.5c-2.9,0-5.2,0.7-6.9,2.1c-1.7,1.4-2.5,3.3-2.5,5.8
	c0,1.3,0.3,2.4,0.8,3.4s1.2,1.8,2,2.6c0.8,0.7,2.1,1.5,3.8,2.3c1.8,0.9,3,1.5,3.6,1.9c0.6,0.4,1,0.8,1.3,1.2
	c0.3,0.4,0.5,0.9,0.5,1.4c0,1-0.3,1.7-1,2.2c-0.7,0.5-1.7,0.7-3,0.7c-1.1,0-2.3-0.2-3.5-0.5c-1.1-0.3-2.3-0.7-3.7-1.3
	c-0.5-0.2-1,0.1-1,0.6l0,3.9c0,0.3,0.2,0.5,0.4,0.7c2.2,1,4.6,1.5,7.4,1.5c3.2,0,5.7-0.7,7.5-2.2c1.8-1.4,2.7-3.4,2.7-5.9
	c0-1.8-0.5-3.3-1.4-4.6c-1-1.2-2.7-2.5-5.3-3.7c-2-0.9-3.2-1.6-3.7-1.9c-0.5-0.4-0.9-0.7-1.1-1.1c-0.2-0.4-0.4-0.8-0.4-1.4
	c0-0.8,0.3-1.5,0.9-2c0.6-0.5,1.4-0.8,2.6-0.8c0.9,0,1.9,0.1,2.8,0.4c0.6,0.2,1.3,0.4,2.2,0.7c0.5,0.2,0.9-0.2,0.9-0.7l0-3.7
	c0-0.3-0.2-0.6-0.5-0.7C117.9,222.3,117.5,222.2,117.1,222.1z"/>
<path fill="none" d="M158.3,234.1c-0.2-0.8-0.4-1.4-0.5-1.9c-0.4,1.6-1.6,5.6-3.6,12h1.3l0.3-1l-0.3,1h5c0.5,0,0.8-0.5,0.7-0.9
	C159.5,237.9,158.5,234.9,158.3,234.1z"/>
<path fill="#2B2B2B" d="M161,221.9h-6.2c-0.3,0-0.6,0.2-0.7,0.5l-9.3,26.3c-0.2,0.5,0.2,0.9,0.7,0.9h4.8c0.3,0,0.6-0.2,0.7-0.5
	l1.9-6.1l1.5-4.9c2-6.4,3.2-10.4,3.6-12c0.1,0.5,0.3,1.1,0.5,1.9c0.2,0.7,1.2,3.8,2.8,9.2c0.1,0.5-0.2,0.9-0.7,0.9l-2.8,0
	c-0.4,0-0.8,0.4-0.7,0.9l0.7,3.5c0.1,0.3,0.4,0.6,0.7,0.6h3.9c0.3,0,0.6,0.2,0.7,0.5l1.7,5.6c0.1,0.3,0.4,0.5,0.7,0.5h4.8
	c0.5,0,0.8-0.5,0.7-0.9l-9.3-26.3C161.5,222,161.3,221.9,161,221.9z"/>
</svg>